# Blender 4.2.1 LTS
# www.blender.org
mtllib dungeon-1.mtl
o Cube
v -2.674873 0.910983 10.754339
v -2.674873 0.346411 10.754339
v -2.674873 0.389800 -9.460443
v -2.674873 0.346411 -10.754339
v 2.674873 0.910983 10.754339
v 2.674873 0.346411 10.754339
v 2.674873 0.389800 -9.460443
v 2.674873 0.346411 -10.754339
v -2.674873 -0.346411 10.754339
v -2.674873 -0.346411 -10.754339
v 2.674873 -0.346411 10.754339
v 2.674873 -0.346411 -10.754339
v -1.283455 0.914747 10.754339
v -2.674873 0.346411 -10.754339
v 2.674873 0.346411 -10.754339
v 1.283455 0.914747 10.754339
v -1.283455 5.990716 10.754339
v -2.674873 8.205217 -10.754339
v 2.674873 8.205217 -10.754339
v 1.283455 5.990716 10.754339
v -2.422064 8.205217 10.501530
v -2.422064 8.205217 -10.501530
v 2.422064 8.205217 -10.501530
v 2.422064 8.205217 10.501530
v 2.674873 0.346411 10.754339
v -2.674873 0.346411 10.754339
v 2.674873 8.205217 10.754339
v -2.674873 8.205217 10.754339
v -2.674873 -3.582750 -20.953697
v 2.674873 -3.582750 -20.953697
v 2.674873 4.276056 -20.953697
v -2.674873 4.276056 -20.953697
v -2.674873 -3.582750 -27.250252
v 2.674873 -3.582750 -27.250252
v 2.674873 4.276056 -27.250252
v -2.674873 4.276056 -27.250252
v -12.013856 -7.670192 -20.953697
v -12.013856 0.188614 -20.953697
v -12.013856 -7.670192 -27.250252
v -12.013856 0.188614 -27.250252
v -30.433708 -7.670192 -20.953697
v -30.433708 0.188614 -20.953697
v -30.433708 -7.670192 -27.250252
v -30.433708 0.188614 -27.250252
v -12.013856 -7.670192 -9.059361
v -12.013856 0.188614 -9.059361
v -12.013856 -7.670192 -39.144588
v -12.013856 0.188614 -39.144588
v -30.433708 -7.670192 -9.059361
v -30.433708 0.188614 -9.059361
v -30.433708 -7.670192 -39.144588
v -30.433708 0.188614 -39.144588
v -25.652273 -7.670192 -27.250252
v -25.652273 0.188614 -27.250252
v -25.652273 0.188614 -20.953697
v -25.652273 -7.670192 -20.953697
v -25.652273 -7.670192 -39.144588
v -25.652273 0.188614 -39.144588
v -25.652273 0.188614 -9.059361
v -25.652273 -7.670192 -9.059361
v -29.094400 -7.670192 -27.250252
v -29.094400 -7.670192 -39.144588
v -29.094400 0.188614 -27.250252
v -29.094400 0.188614 -20.953697
v -29.094400 -7.670192 -20.953697
v -29.094400 0.188614 -39.144588
v -29.094400 0.188614 -9.059361
v -29.094400 -7.670192 -9.059361
v 2.674873 4.767113 -10.754339
v -2.674873 4.767113 -10.754339
v 2.674873 4.767113 10.754339
v -2.674873 4.767113 10.754339
v 1.283455 4.394195 10.754339
v -1.283455 4.394195 10.754339
v 2.674873 0.837952 -20.953697
v -2.674873 0.837952 -20.953697
v 2.674873 0.837952 -27.250252
v -2.674873 0.837952 -27.250252
v -12.013856 -3.249490 -20.953697
v -12.013856 -3.249490 -27.250252
v -30.433708 -3.249490 -20.953697
v -30.433708 -3.249490 -27.250252
v -12.013856 -3.249490 -9.059361
v -12.013856 -3.249490 -39.144588
v -30.433708 -3.249490 -9.059361
v -30.433708 -3.249490 -39.144588
v -25.652273 -3.249490 -9.059361
v -25.652273 -3.249490 -39.144588
v -29.094400 -3.249490 -9.059361
v -29.094400 -3.249490 -39.144588
v -29.094400 -7.670192 2.570299
v -25.652273 -7.670192 2.570299
v -25.652273 -3.249490 2.570299
v -29.094400 -3.249490 2.570299
v -29.094400 -7.670192 8.934637
v -25.652273 -7.670192 8.934637
v -25.652273 -3.249490 8.934637
v -29.094400 -3.249490 8.934637
v -24.197363 -3.249490 2.570299
v -24.197363 -7.670192 2.570299
v -30.549311 -3.249490 2.570299
v -30.549311 -7.670192 2.570299
v -24.197363 -3.249490 8.934637
v -24.197363 -7.670192 8.934637
v -30.549311 -3.249490 8.934637
v -30.549311 -7.670192 8.934637
v -25.652273 -0.450964 3.709122
v -25.652273 -1.589787 2.570299
v -25.652273 -0.506702 3.357206
v -25.652273 -0.668460 3.039738
v -25.652273 -0.920404 2.787795
v -25.652273 -1.237871 2.626037
v -29.094400 -1.589787 2.570299
v -29.094400 -0.450964 3.709122
v -29.094400 -1.237871 2.626037
v -29.094400 -0.920404 2.787795
v -29.094400 -0.668460 3.039738
v -29.094400 -0.506702 3.357206
v -25.652273 -1.589787 8.934637
v -25.652273 -0.450964 7.795815
v -25.652273 -1.237871 8.878899
v -25.652273 -0.920404 8.717141
v -25.652273 -0.668460 8.465198
v -25.652273 -0.506702 8.147730
v -29.094400 -0.450964 7.795815
v -29.094400 -1.589787 8.934637
v -29.094400 -0.506702 8.147730
v -29.094400 -0.668460 8.465198
v -29.094400 -0.920404 8.717141
v -29.094400 -1.237871 8.878899
v -30.549311 -1.589787 8.934637
v -29.410488 -0.450964 7.795815
v -30.493572 -1.237871 8.878900
v -30.331816 -0.920404 8.717142
v -30.079872 -0.668460 8.465199
v -29.762405 -0.506702 8.147731
v -29.410488 -0.450964 3.709122
v -30.549311 -1.589787 2.570299
v -29.762405 -0.506702 3.357206
v -30.079872 -0.668460 3.039737
v -30.331818 -0.920404 2.787794
v -30.493572 -1.237871 2.626036
v -25.336185 -0.450964 7.795815
v -24.197363 -1.589787 8.934637
v -24.984268 -0.506702 8.147731
v -24.666801 -0.668460 8.465199
v -24.414856 -0.920404 8.717142
v -24.253101 -1.237871 8.878900
v -24.197363 -1.589787 2.570299
v -25.336185 -0.450964 3.709122
v -24.253101 -1.237871 2.626036
v -24.414856 -0.920404 2.787793
v -24.666801 -0.668460 3.039737
v -24.984268 -0.506702 3.357205
vn -1.0000 -0.0000 -0.0000
vn -0.0000 0.9994 -0.0335
vn 1.0000 -0.0000 -0.0000
vn -0.0000 -0.0000 1.0000
vn -0.0000 0.9997 -0.0258
vn -0.0000 -0.0000 -1.0000
vn -0.0000 -1.0000 -0.0000
vn -0.0000 0.9332 -0.3595
vn -0.0000 1.0000 -0.0000
vn -0.0000 -0.9332 0.3595
vn 0.4010 -0.9161 -0.0000
vn -0.4010 0.9161 -0.0000
vn -0.0000 0.1564 -0.9877
vn -0.0000 0.4540 -0.8910
vn -0.0000 0.7071 -0.7071
vn -0.0000 0.8910 -0.4540
vn -0.0000 0.9877 -0.1564
vn -0.0000 0.9877 0.1564
vn -0.0000 0.8910 0.4540
vn -0.0000 0.7071 0.7071
vn -0.0000 0.4540 0.8910
vn -0.0000 0.1564 0.9877
vn -0.1564 0.9877 -0.0000
vn -0.4540 0.8910 -0.0000
vn -0.7071 0.7071 -0.0000
vn -0.8910 0.4540 -0.0000
vn -0.9877 0.1564 -0.0000
vn 0.9877 0.1564 -0.0000
vn 0.8910 0.4540 -0.0000
vn 0.7071 0.7071 -0.0000
vn 0.4540 0.8910 -0.0000
vn 0.1564 0.9877 -0.0000
vt 0.375000 0.000000
vt 0.375000 0.250000
vt 0.625000 0.250000
vt 0.625000 0.000000
vt 0.375000 0.500000
vt 0.625000 0.500000
vt 0.375000 0.750000
vt 0.625000 0.750000
vt 0.375000 1.000000
vt 0.625000 1.000000
vt 0.125000 0.500000
vt 0.125000 0.750000
vt 0.875000 0.500000
vt 0.863186 0.747061
vt 0.863186 0.502938
vt 0.875000 0.750000
vt 0.636814 0.502938
vt 0.636814 0.747062
vt 0.625000 0.815023
vt 0.625000 0.934977
vt 0.625000 0.934977
vt 0.625000 0.815023
vt 0.625000 0.934977
vt 0.625000 0.500000
vt 0.625000 0.250000
vt 0.625000 0.250000
vt 0.625000 0.250000
vt 0.625000 0.250000
vt 0.625000 0.250000
s 0
f 1/1/1 3/2/1 4/3/1 2/4/1
f 3/2/2 7/5/2 8/6/2 4/3/2
f 7/5/3 5/7/3 6/8/3 8/6/3
f 5/7/4 1/9/4 2/10/4 6/8/4
f 3/11/5 1/12/5 5/7/5 7/5/5
f 9/1/1 26/4/1 14/3/1 10/2/1
f 10/2/6 14/3/6 15/6/6 12/5/6
f 12/5/3 15/6/3 25/8/3 11/7/3
f 11/7/4 25/8/4 26/10/4 9/9/4
f 10/11/7 12/5/7 11/7/7 9/12/7
f 71/8/3 69/6/3 19/6/3 27/8/3
f 18/13/8 19/6/8 31/6/8 32/13/8
f 21/14/9 22/15/9 18/13/9 28/16/9
f 22/15/9 23/17/9 19/6/9 18/13/9
f 23/17/9 24/18/9 27/8/9 19/6/9
f 24/18/9 21/14/9 28/16/9 27/8/9
f 21/14/9 24/18/9 23/17/9 22/15/9
f 70/3/1 72/4/1 28/4/1 18/3/1
f 70/3/1 18/3/1 32/3/1 76/3/1
f 32/13/9 31/6/9 35/6/9 36/13/9
f 16/19/4 13/20/4 26/10/4 25/8/4
f 17/21/4 20/19/4 27/8/4 28/10/4
f 73/22/4 16/19/4 25/8/4 71/8/4
f 74/23/4 17/21/4 28/10/4 72/10/4
f 15/6/10 14/3/10 29/3/10 30/6/10
f 69/6/3 15/6/3 30/6/3 75/24/3
f 77/6/6 78/3/6 36/3/6 35/6/6
f 75/24/3 30/6/3 34/6/3 77/6/3
f 78/3/6 33/3/6 39/3/6 80/3/6
f 30/6/7 29/3/7 33/3/7 34/6/7
f 80/3/3 39/3/3 47/3/3 84/3/3
f 33/3/11 29/3/11 37/3/11 39/3/11
f 76/3/4 32/3/4 38/3/4 79/3/4
f 32/13/12 36/13/12 40/13/12 38/13/12
f 81/3/1 42/3/1 44/3/1 82/3/1
f 64/13/9 63/13/9 44/13/9 42/13/9
f 61/3/7 43/3/7 51/3/7 62/25/7
f 61/3/7 65/3/7 41/3/7 43/3/7
f 90/3/6 62/25/6 51/3/6 86/25/6
f 89/3/4 67/3/4 50/3/4 85/3/4
f 81/3/1 41/3/1 49/3/1 85/3/1
f 56/3/7 37/3/7 45/3/7 60/3/7
f 54/13/9 40/13/9 48/13/9 58/13/9
f 79/3/3 38/3/3 46/3/3 83/3/3
f 82/3/1 44/3/1 52/3/1 86/25/1
f 64/13/9 42/13/9 50/13/9 67/13/9
f 38/13/9 55/13/9 59/13/9 46/13/9
f 63/13/9 54/13/9 58/13/9 66/13/9
f 65/3/7 56/3/7 60/3/7 68/3/7
f 83/3/4 46/3/4 59/3/4 87/3/4
f 84/3/6 47/3/6 57/3/6 88/3/6
f 39/3/7 37/3/7 56/3/7 53/3/7
f 39/3/7 53/3/7 57/3/7 47/3/7
f 38/13/9 40/13/9 54/13/9 55/13/9
f 41/3/7 65/3/7 68/3/7 49/3/7
f 44/13/9 63/13/9 66/13/9 52/13/9
f 55/13/9 64/13/9 67/13/9 59/13/9
f 87/3/4 59/3/4 67/3/4 89/3/4
f 88/3/6 57/3/6 62/25/6 90/3/6
f 53/3/7 56/3/7 65/3/7 61/3/7
f 53/3/7 61/3/7 62/25/7 57/3/7
f 55/13/9 54/13/9 63/13/9 64/13/9
f 58/3/6 88/3/6 90/3/6 66/3/6
f 60/3/3 87/3/3 93/3/3 92/3/3
f 48/3/6 84/3/6 88/3/6 58/3/6
f 45/3/4 83/3/4 87/3/4 60/3/4
f 43/3/1 82/3/1 86/25/1 51/3/1
f 37/3/3 79/3/3 83/3/3 45/3/3
f 42/3/1 81/3/1 85/3/1 50/3/1
f 68/3/4 89/3/4 85/3/4 49/3/4
f 66/3/6 90/3/6 86/25/6 52/3/6
f 41/3/1 81/3/1 82/3/1 43/3/1
f 29/3/4 76/3/4 79/3/4 37/3/4
f 40/3/3 80/3/3 84/3/3 48/3/3
f 36/3/6 78/3/6 80/3/6 40/3/6
f 31/6/3 75/24/3 77/6/3 35/6/3
f 34/6/6 33/3/6 78/3/6 77/6/6
f 19/6/3 69/6/3 75/24/3 31/6/3
f 13/20/4 74/23/4 72/10/4 26/10/4
f 20/19/4 73/22/4 71/8/4 27/8/4
f 14/3/1 70/3/1 76/3/1 29/3/1
f 14/3/1 26/4/1 72/4/1 70/3/1
f 25/8/3 15/6/3 69/6/3 71/8/3
f 97/3/4 103/3/4 144/3/4 119/3/4
f 87/3/9 89/3/9 94/3/9 93/3/9
f 68/3/7 60/3/7 92/3/7 91/3/7
f 89/3/1 68/3/1 91/3/1 94/3/1
f 96/3/4 97/3/4 98/3/4 95/3/4
f 91/3/7 92/3/7 96/3/7 95/3/7
f 105/3/4 98/3/4 126/3/4 131/3/4
f 125/3/9 114/3/9 137/26/9 132/27/9
f 101/3/1 102/3/1 106/3/1 105/3/1
f 100/3/3 99/3/3 103/3/3 104/3/3
f 94/3/6 91/3/6 102/3/6 101/3/6
f 97/3/4 96/3/4 104/3/4 103/3/4
f 96/3/7 92/3/7 100/3/7 104/3/7
f 91/3/7 95/3/7 106/3/7 102/3/7
f 92/3/6 93/3/6 99/3/6 100/3/6
f 95/3/4 98/3/4 105/3/4 106/3/4
f 98/3/4 97/3/4 119/3/4 126/3/4
f 107/3/9 120/3/9 143/25/9 150/3/9
f 99/3/6 93/3/6 108/3/6 149/3/6
f 101/3/1 105/3/1 131/3/1 138/3/1
f 94/3/6 101/3/6 138/3/6 113/3/6
f 107/3/9 114/3/9 125/3/9 120/3/9
f 103/3/3 99/3/3 149/3/3 144/3/3
f 108/3/13 113/3/13 115/3/13 112/3/13
f 112/3/14 115/3/14 116/3/14 111/3/14
f 111/3/15 116/3/15 117/3/15 110/3/15
f 110/3/16 117/3/16 118/3/16 109/3/16
f 109/3/17 118/3/17 114/3/17 107/3/17
f 120/3/18 125/3/18 127/3/18 124/3/18
f 124/3/19 127/3/19 128/3/19 123/3/19
f 123/3/20 128/3/20 129/3/20 122/3/20
f 122/3/21 129/3/21 130/3/21 121/3/21
f 121/3/22 130/3/22 126/3/22 119/3/22
f 132/27/23 137/26/23 139/3/23 136/3/23
f 136/3/24 139/3/24 140/3/24 135/3/24
f 135/3/25 140/3/25 141/3/25 134/28/25
f 134/28/26 141/3/26 142/3/26 133/3/26
f 133/3/27 142/3/27 138/3/27 131/3/27
f 144/3/28 149/3/28 151/3/28 148/3/28
f 148/3/29 151/3/29 152/3/29 147/29/29
f 147/29/30 152/3/30 153/3/30 146/29/30
f 146/29/31 153/3/31 154/3/31 145/3/31
f 145/3/32 154/3/32 150/3/32 143/25/32
f 119/3/22 144/3/22 148/3/22 121/3/22
f 121/3/21 148/3/21 147/29/21 122/3/21
f 122/3/20 147/29/20 146/29/20 123/3/20
f 123/3/19 146/29/19 145/3/19 124/3/19
f 124/3/18 145/3/18 143/25/18 120/3/18
f 149/3/13 108/3/13 112/3/13 151/3/13
f 151/3/14 112/3/14 111/3/14 152/3/14
f 152/3/15 111/3/15 110/3/15 153/3/15
f 153/3/16 110/3/16 109/3/16 154/3/16
f 154/3/17 109/3/17 107/3/17 150/3/17
f 113/3/13 138/3/13 142/3/13 115/3/13
f 115/3/14 142/3/14 141/3/14 116/3/14
f 116/3/15 141/3/15 140/3/15 117/3/15
f 117/3/16 140/3/16 139/3/16 118/3/16
f 118/3/17 139/3/17 137/26/17 114/3/17
f 131/3/22 126/3/22 130/3/22 133/3/22
f 133/3/21 130/3/21 129/3/21 134/28/21
f 134/28/20 129/3/20 128/3/20 135/3/20
f 135/3/19 128/3/19 127/3/19 136/3/19
f 136/3/18 127/3/18 125/3/18 132/27/18
f 93/3/6 94/3/6 113/3/6 108/3/6
